<svg xmlns="http://www.w3.org/2000/svg" width="276" height="464.00000000000006">
 <!-- Created with Image Occlusion Enhanced -->
 <g>
  <title>Labels</title>
 </g>
 <g>
  <title>Masks</title>
  <rect id="28dcc1f361ae4ce3b2d200dc09a071b2-ao-1" height="24.32433" width="90.991" y="43.20723" x="47.90991" stroke="#2D2D2D" fill="#FFEBA2"/>
  <rect id="28dcc1f361ae4ce3b2d200dc09a071b2-ao-2" height="27.92793" width="100" y="72.03606" x="1.06306" stroke="#2D2D2D" fill="#FFEBA2"/>
  <rect id="28dcc1f361ae4ce3b2d200dc09a071b2-ao-3" height="16.21622" width="74.77478" y="105.36939" x="5.56756" stroke="#2D2D2D" fill="#FFEBA2"/>
  <rect id="28dcc1f361ae4ce3b2d200dc09a071b2-ao-4" height="9.90991" width="31.53153" y="127.89192" x="46.1081" stroke="#2D2D2D" fill="#FFEBA2"/>
  <rect id="28dcc1f361ae4ce3b2d200dc09a071b2-ao-5" height="9.90991" width="26.12613" y="143.20723" x="48.81081" stroke="#2D2D2D" fill="#FFEBA2"/>
  <rect id="28dcc1f361ae4ce3b2d200dc09a071b2-ao-6" height="20.72072" width="39.63964" y="159.42345" x="47.90991" stroke="#2D2D2D" fill="#FFEBA2"/>
  <rect id="28dcc1f361ae4ce3b2d200dc09a071b2-ao-7" height="16.21622" width="71.17117" y="190.95498" x="24.48648" stroke="#2D2D2D" fill="#FFEBA2"/>
  <rect id="28dcc1f361ae4ce3b2d200dc09a071b2-ao-8" height="14.41442" width="75.67568" y="219.78381" x="24.48648" stroke="#2D2D2D" fill="#FFEBA2"/>
  <rect id="28dcc1f361ae4ce3b2d200dc09a071b2-ao-9" height="11.71171" width="84.68469" y="245.90994" x="10.07207" stroke="#2D2D2D" fill="#FFEBA2"/>
  <rect id="28dcc1f361ae4ce3b2d200dc09a071b2-ao-10" height="14.41442" width="73.87388" y="272.93697" x="28.99099" stroke="#2D2D2D" fill="#FFEBA2"/>
  <rect id="28dcc1f361ae4ce3b2d200dc09a071b2-ao-11" height="13.51351" width="78.37838" y="363.92796" x="16.37837" stroke="#2D2D2D" fill="#FFEBA2"/>
  <rect id="28dcc1f361ae4ce3b2d200dc09a071b2-ao-12" height="27.92793" width="81.98199" y="405.36941" x="16.37837" stroke="#2D2D2D" fill="#FFEBA2"/>
  <rect id="28dcc1f361ae4ce3b2d200dc09a071b2-ao-13" height="20.72072" width="153.15316" y="442.30635" x="63.22522" stroke="#2D2D2D" fill="#FFEBA2"/>
  <rect id="28dcc1f361ae4ce3b2d200dc09a071b2-ao-14" height="27.02703" width="79.27928" y="411.67571" x="180.34234" stroke="#2D2D2D" fill="#FFEBA2"/>
  <rect id="28dcc1f361ae4ce3b2d200dc09a071b2-ao-15" height="25.22523" width="45.04505" y="351.31535" x="176.73874" stroke="#2D2D2D" fill="#FFEBA2"/>
  <rect id="28dcc1f361ae4ce3b2d200dc09a071b2-ao-16" height="14.41442" width="68.46847" y="280.14418" x="178.54054" stroke="#2D2D2D" fill="#FFEBA2"/>
  
  <rect id="28dcc1f361ae4ce3b2d200dc09a071b2-ao-18" height="28.82883" width="72.97298" y="223.38742" x="173.13514" stroke="#2D2D2D" fill="#FFEBA2"/>
  <rect id="28dcc1f361ae4ce3b2d200dc09a071b2-ao-19" height="14.41442" width="72.07208" y="206.2703" x="175.83784" stroke="#2D2D2D" fill="#FFEBA2"/>
  <rect id="28dcc1f361ae4ce3b2d200dc09a071b2-ao-20" height="10.81081" width="65.76577" y="184.64868" x="175.83784" stroke="#2D2D2D" fill="#FFEBA2"/>
  <rect id="28dcc1f361ae4ce3b2d200dc09a071b2-ao-21" height="14.41442" width="73.87388" y="162.12615" x="178.54054" stroke="#2D2D2D" fill="#FFEBA2"/>
  <rect id="28dcc1f361ae4ce3b2d200dc09a071b2-ao-22" height="12.61261" width="63.06307" y="144.10813" x="185.74775" stroke="#2D2D2D" fill="#FFEBA2"/>
  <rect id="28dcc1f361ae4ce3b2d200dc09a071b2-ao-23" height="34.23424" width="72.97298" y="105.36939" x="199.26126" stroke="#2D2D2D" fill="#FFEBA2"/>
  <rect id="28dcc1f361ae4ce3b2d200dc09a071b2-ao-24" height="23.42342" width="43.24325" y="74.73876" x="203.76577" stroke="#2D2D2D" fill="#FFEBA2"/>
  <rect id="28dcc1f361ae4ce3b2d200dc09a071b2-ao-25" height="23.42342" width="96.3964" y="51.31534" x="165.02703" stroke="#2D2D2D" fill="#FFEBA2"/>
 </g>
</svg>