<svg xmlns="http://www.w3.org/2000/svg" width="292" height="269">
 <!-- Created with Image Occlusion Enhanced -->
 <g>
  <title>Labels</title>
 </g>
 <g>
  <title>Masks</title>
  <rect id="43bb733d44f149b5a9aa557203320c8c-ao-1" height="12.56545" width="69.63351" y="35.18849" x="38.89007" stroke="#2D2D2D" fill="#FFEBA2"/>
  <rect id="43bb733d44f149b5a9aa557203320c8c-ao-2" height="22.51309" width="97.90576" y="56.1309" x="4.85865" stroke="#2D2D2D" fill="#FFEBA2"/>
  <rect id="43bb733d44f149b5a9aa557203320c8c-ao-3" height="12.04189" width="93.71728" y="82.83248" x="5.38221" stroke="#2D2D2D" fill="#FFEBA2"/>
  <rect id="43bb733d44f149b5a9aa557203320c8c-ao-4" height="13.08901" width="94.24084" y="100.10996" x="5.90577" stroke="#2D2D2D" fill="#FFEBA2"/>
  
  <rect id="43bb733d44f149b5a9aa557203320c8c-ao-6" height="22.51309" width="96.85864" y="144.08902" x="6.42934" stroke="#2D2D2D" fill="#FFEBA2"/>
  <rect id="43bb733d44f149b5a9aa557203320c8c-ao-7" height="12.04189" width="69.63351" y="170.26703" x="5.90577" stroke="#2D2D2D" fill="#FFEBA2"/>
  <rect id="43bb733d44f149b5a9aa557203320c8c-ao-8" height="12.04189" width="103.14137" y="185.97384" x="5.90577" stroke="#2D2D2D" fill="#FFEBA2"/>
  <rect id="43bb733d44f149b5a9aa557203320c8c-ao-9" height="11.51833" width="104.71205" y="202.20421" x="5.38221" stroke="#2D2D2D" fill="#FFEBA2"/>
  <rect id="43bb733d44f149b5a9aa557203320c8c-ao-10" height="10.4712" width="86.911" y="221.05238" x="5.38221" stroke="#2D2D2D" fill="#FFEBA2"/>
  <rect id="43bb733d44f149b5a9aa557203320c8c-ao-11" height="12.56545" width="70.15707" y="238.85343" x="3.81153" stroke="#2D2D2D" fill="#FFEBA2"/>
  <rect id="43bb733d44f149b5a9aa557203320c8c-ao-12" height="10.99476" width="76.96335" y="11.62828" x="99.0995" stroke="#2D2D2D" fill="#FFEBA2"/>
  <rect id="43bb733d44f149b5a9aa557203320c8c-ao-13" height="24.08377" width="74.86911" y="-1.46072" x="183.91626" stroke="#2D2D2D" fill="#FFEBA2"/>
  <rect id="43bb733d44f149b5a9aa557203320c8c-ao-14" height="20.41885" width="60.20943" y="14.24608" x="231.56024" stroke="#2D2D2D" fill="#FFEBA2"/>
  <rect id="43bb733d44f149b5a9aa557203320c8c-ao-15" height="47.12042" width="48.6911" y="151.41887" x="160.35604" stroke="#2D2D2D" fill="#FFEBA2"/>
  <rect id="43bb733d44f149b5a9aa557203320c8c-ao-16" height="24.60733" width="60.73299" y="204.29845" x="157.73824" stroke="#2D2D2D" fill="#FFEBA2"/>
  <rect id="43bb733d44f149b5a9aa557203320c8c-ao-17" height="11.51833" width="108.37697" y="233.61782" x="164.54453" stroke="#2D2D2D" fill="#FFEBA2"/>
 </g>
</svg>