<svg xmlns="http://www.w3.org/2000/svg" width="471.99999999999994" height="305.99999999999994">
 <!-- Created with Image Occlusion Enhanced -->
 <g>
  <title>Labels</title>
 </g>
 <g>
  <title>Masks</title>
  <rect id="47c0a48c2e154861be7470d12186efdf-ao-1" height="11.90476" width="153.57142" y="17.80951" x="20.85713" stroke="#2D2D2D" fill="#FFEBA2"/>
  <rect id="47c0a48c2e154861be7470d12186efdf-ao-2" height="12.5" width="159.52381" y="40.42856" x="8.35713" stroke="#2D2D2D" fill="#FFEBA2"/>
  <rect id="47c0a48c2e154861be7470d12186efdf-ao-3" height="20.83333" width="113.69047" y="57.69046" x="38.71427" stroke="#2D2D2D" fill="#FFEBA2"/>
  <rect id="47c0a48c2e154861be7470d12186efdf-ao-4" height="10.11905" width="103.57143" y="86.26189" x="51.80951" stroke="#2D2D2D" fill="#FFEBA2"/>
  <rect id="47c0a48c2e154861be7470d12186efdf-ao-5" height="31.54762" width="105.35714" y="102.33332" x="23.83332" stroke="#2D2D2D" fill="#FFEBA2"/>
  <rect id="47c0a48c2e154861be7470d12186efdf-ao-6" height="16.07143" width="74.40476" y="138.64284" x="39.90475" stroke="#2D2D2D" fill="#FFEBA2"/>
  <rect id="47c0a48c2e154861be7470d12186efdf-ao-7" height="19.64286" width="58.92857" y="161.26189" x="43.47618" stroke="#2D2D2D" fill="#FFEBA2"/>
  <rect id="47c0a48c2e154861be7470d12186efdf-ao-8" height="21.42857" width="69.04762" y="188.0476" x="25.61903" stroke="#2D2D2D" fill="#FFEBA2"/>
  
  <rect id="47c0a48c2e154861be7470d12186efdf-ao-10" height="12.5" width="129.7619" y="284.47617" x="123.83332" stroke="#2D2D2D" fill="#FFEBA2"/>
  <rect id="47c0a48c2e154861be7470d12186efdf-ao-11" height="16.07143" width="150" y="232.69046" x="323.83331" stroke="#2D2D2D" fill="#FFEBA2"/>
  <rect id="47c0a48c2e154861be7470d12186efdf-ao-12" height="8.92857" width="122.02381" y="220.19046" x="323.83331" stroke="#2D2D2D" fill="#FFEBA2"/>
  <rect id="47c0a48c2e154861be7470d12186efdf-ao-13" height="8.92857" width="100.59524" y="205.30951" x="321.45236" stroke="#2D2D2D" fill="#FFEBA2"/>
  <rect id="47c0a48c2e154861be7470d12186efdf-ao-14" height="8.92857" width="100" y="192.21427" x="326.8095" stroke="#2D2D2D" fill="#FFEBA2"/>
  <rect id="47c0a48c2e154861be7470d12186efdf-ao-15" height="8.92857" width="126.19047" y="175.5476" x="325.02379" stroke="#2D2D2D" fill="#FFEBA2"/>
  <rect id="47c0a48c2e154861be7470d12186efdf-ao-16" height="10.71429" width="151.19047" y="159.47618" x="313.11903" stroke="#2D2D2D" fill="#FFEBA2"/>
  <rect id="47c0a48c2e154861be7470d12186efdf-ao-17" height="24.40476" width="134.52381" y="133.2857" x="316.09522" stroke="#2D2D2D" fill="#FFEBA2"/>
  <rect id="47c0a48c2e154861be7470d12186efdf-ao-18" height="10.71429" width="133.33333" y="121.97618" x="315.49998" stroke="#2D2D2D" fill="#FFEBA2"/>
  <rect id="47c0a48c2e154861be7470d12186efdf-ao-19" height="7.14286" width="53.57143" y="109.47618" x="314.90474" stroke="#2D2D2D" fill="#FFEBA2"/>
  <rect id="47c0a48c2e154861be7470d12186efdf-ao-20" height="8.92857" width="34.52381" y="93.99999" x="311.33331" stroke="#2D2D2D" fill="#FFEBA2"/>
  <rect id="47c0a48c2e154861be7470d12186efdf-ao-21" height="10.11905" width="102.38095" y="77.92856" x="308.35712" stroke="#2D2D2D" fill="#FFEBA2"/>
  <rect id="47c0a48c2e154861be7470d12186efdf-ao-22" height="12.5" width="103.57143" y="61.85713" x="306.57141" stroke="#2D2D2D" fill="#FFEBA2"/>
  <rect id="47c0a48c2e154861be7470d12186efdf-ao-23" height="10.71429" width="148.21428" y="46.97618" x="301.8095" stroke="#2D2D2D" fill="#FFEBA2"/>
  <rect id="47c0a48c2e154861be7470d12186efdf-ao-24" height="8.33333" width="49.40476" y="33.2857" x="305.97617" stroke="#2D2D2D" fill="#FFEBA2"/>
  <rect id="47c0a48c2e154861be7470d12186efdf-ao-25" height="8.33333" width="101.19047" y="18.99999" x="298.23807" stroke="#2D2D2D" fill="#FFEBA2"/>
 </g>
</svg>