<svg xmlns="http://www.w3.org/2000/svg" width="269" height="470">
 <!-- Created with Image Occlusion Enhanced -->
 <g>
  <title>Labels</title>
 </g>
 <g>
  <title>Masks</title>
  <rect id="5201252962204eb18009e5bd8c6f1a8e-ao-1" height="26.60551" width="97.24771" y="35.5046" x="19.82111" stroke="#2D2D2D" fill="#FFEBA2"/>
  <rect id="5201252962204eb18009e5bd8c6f1a8e-ao-2" height="54.12844" width="68.80734" y="91.4679" x="4.22478" stroke="#2D2D2D" fill="#FFEBA2"/>
  <rect id="5201252962204eb18009e5bd8c6f1a8e-ao-3" height="19.26606" width="61.46789" y="156.60552" x="27.16056" stroke="#2D2D2D" fill="#FFEBA2"/>
  <rect id="5201252962204eb18009e5bd8c6f1a8e-ao-4" height="19.26606" width="61.46789" y="202.47708" x="26.24313" stroke="#2D2D2D" fill="#FFEBA2"/>
  <rect id="5201252962204eb18009e5bd8c6f1a8e-ao-5" height="22.93578" width="41.2844" y="230.91745" x="26.24313" stroke="#2D2D2D" fill="#FFEBA2"/>
  <rect id="5201252962204eb18009e5bd8c6f1a8e-ao-6" height="12.84404" width="66.05505" y="263.02754" x="15.23396" stroke="#2D2D2D" fill="#FFEBA2"/>
  <rect id="5201252962204eb18009e5bd8c6f1a8e-ao-7" height="54.12844" width="86.23853" y="313.48626" x="10.6468" stroke="#2D2D2D" fill="#FFEBA2"/>
  <rect id="5201252962204eb18009e5bd8c6f1a8e-ao-8" height="25.68807" width="44.0367" y="373.11929" x="24.40827" stroke="#2D2D2D" fill="#FFEBA2"/>
  <rect id="5201252962204eb18009e5bd8c6f1a8e-ao-9" height="24.77064" width="77.98165" y="405.22938" x="2.38992" stroke="#2D2D2D" fill="#FFEBA2"/>
  <rect id="5201252962204eb18009e5bd8c6f1a8e-ao-10" height="11.00917" width="152.29358" y="452.01837" x="34.50001" stroke="#2D2D2D" fill="#FFEBA2"/>
  <rect id="5201252962204eb18009e5bd8c6f1a8e-ao-11" height="19.26606" width="79.81652" y="423.578" x="169.3624" stroke="#2D2D2D" fill="#FFEBA2"/>
  <rect id="5201252962204eb18009e5bd8c6f1a8e-ao-12" height="10.09174" width="84.40367" y="400.64222" x="168.44497" stroke="#2D2D2D" fill="#FFEBA2"/>
  <rect id="5201252962204eb18009e5bd8c6f1a8e-ao-13" height="19.26606" width="66.97248" y="374.03672" x="159.27066" stroke="#2D2D2D" fill="#FFEBA2"/>
  <rect id="5201252962204eb18009e5bd8c6f1a8e-ao-14" height="27.52294" width="49.54129" y="341.00919" x="163.85781" stroke="#2D2D2D" fill="#FFEBA2"/>
  <rect id="5201252962204eb18009e5bd8c6f1a8e-ao-15" height="18.34862" width="67.88991" y="287.79818" x="166.61011" stroke="#2D2D2D" fill="#FF7E7E" class="qshape"/>
  <rect id="5201252962204eb18009e5bd8c6f1a8e-ao-16" height="14.6789" width="66.05505" y="263.02754" x="162.94038" stroke="#2D2D2D" fill="#FFEBA2"/>
  <rect id="5201252962204eb18009e5bd8c6f1a8e-ao-17" height="14.6789" width="79.81652" y="236.42204" x="167.52754" stroke="#2D2D2D" fill="#FFEBA2"/>
  <rect id="5201252962204eb18009e5bd8c6f1a8e-ao-18" height="12.84404" width="84.40367" y="213.48625" x="162.94038" stroke="#2D2D2D" fill="#FFEBA2"/>
  <rect id="5201252962204eb18009e5bd8c6f1a8e-ao-19" height="37.61468" width="99.08257" y="164.8624" x="163.85781" stroke="#2D2D2D" fill="#FFEBA2"/>
  <rect id="5201252962204eb18009e5bd8c6f1a8e-ao-20" height="17.43119" width="62.38532" y="148.34864" x="181.28901" stroke="#2D2D2D" fill="#FFEBA2"/>
  <rect id="5201252962204eb18009e5bd8c6f1a8e-ao-21" height="11.00917" width="28.44037" y="133.66974" x="180.37157" stroke="#2D2D2D" fill="#FFEBA2"/>
  <rect id="5201252962204eb18009e5bd8c6f1a8e-ao-22" height="11.92661" width="26.60551" y="117.15598" x="182.20644" stroke="#2D2D2D" fill="#FFEBA2"/>
  <rect id="5201252962204eb18009e5bd8c6f1a8e-ao-23" height="18.34862" width="78.89908" y="95.13763" x="173.03213" stroke="#2D2D2D" fill="#FFEBA2"/>
  <rect id="5201252962204eb18009e5bd8c6f1a8e-ao-24" height="26.60551" width="116.51376" y="66.69726" x="147.34405" stroke="#2D2D2D" fill="#FFEBA2"/>
  <rect id="5201252962204eb18009e5bd8c6f1a8e-ao-25" height="14.6789" width="134.86239" y="36.42203" x="128.078" stroke="#2D2D2D" fill="#FFEBA2"/>
 </g>
</svg>