<svg xmlns="http://www.w3.org/2000/svg" width="344" height="473">
 <!-- Created with Image Occlusion Enhanced -->
 <g>
  <title>Labels</title>
 </g>
 <g>
  <title>Masks</title>
  <rect id="7cd63d73277748bcb77d67bc0fd13f7f-ao-1" height="11.92661" width="68.80734" y="33.422" x="64.66056" stroke="#2D2D2D" fill="#FFEBA2"/>
  <rect id="7cd63d73277748bcb77d67bc0fd13f7f-ao-2" height="24.77064" width="99.08257" y="49.01833" x="32.55047" stroke="#2D2D2D" fill="#FFEBA2"/>
  <rect id="7cd63d73277748bcb77d67bc0fd13f7f-ao-3" height="22.01835" width="66.05505" y="77.4587" x="49.98166" stroke="#2D2D2D" fill="#FFEBA2"/>
  <rect id="7cd63d73277748bcb77d67bc0fd13f7f-ao-4" height="22.93578" width="62.38532" y="104.98164" x="57.32111" stroke="#2D2D2D" fill="#FFEBA2"/>
  <rect id="7cd63d73277748bcb77d67bc0fd13f7f-ao-5" height="23.85321" width="71.55963" y="132.50457" x="59.15597" stroke="#2D2D2D" fill="#FFEBA2"/>
  <rect id="7cd63d73277748bcb77d67bc0fd13f7f-ao-6" height="23.85321" width="72.47707" y="160.94494" x="55.48625" stroke="#2D2D2D" fill="#FFEBA2"/>
  <rect id="7cd63d73277748bcb77d67bc0fd13f7f-ao-7" height="22.01835" width="51.37615" y="187.55045" x="68.33029" stroke="#2D2D2D" fill="#FFEBA2"/>
  <rect id="7cd63d73277748bcb77d67bc0fd13f7f-ao-8" height="22.93578" width="33.02752" y="214.15595" x="75.66974" stroke="#2D2D2D" fill="#FFEBA2"/>
  <rect id="7cd63d73277748bcb77d67bc0fd13f7f-ao-9" height="22.93578" width="66.97248" y="241.67889" x="32.55047" stroke="#2D2D2D" fill="#FFEBA2"/>
  <rect id="7cd63d73277748bcb77d67bc0fd13f7f-ao-10" height="35.77982" width="65.13762" y="270.11926" x="24.29359" stroke="#2D2D2D" fill="#FF7E7E" class="qshape"/>
  <rect id="7cd63d73277748bcb77d67bc0fd13f7f-ao-11" height="86.23853" width="95.41285" y="312.32109" x="1.35781" stroke="#2D2D2D" fill="#FFEBA2"/>
  <rect id="7cd63d73277748bcb77d67bc0fd13f7f-ao-12" height="11.92661" width="77.06422" y="401.31192" x="2.27524" stroke="#2D2D2D" fill="#FFEBA2"/>
  <rect id="7cd63d73277748bcb77d67bc0fd13f7f-ao-13" height="13.76147" width="80.73395" y="415.99082" x="22.45873" stroke="#2D2D2D" fill="#FFEBA2"/>
  <rect id="7cd63d73277748bcb77d67bc0fd13f7f-ao-14" height="14.6789" width="103.66973" y="457.27522" x="27.04588" stroke="#2D2D2D" fill="#FFEBA2"/>
  <rect id="7cd63d73277748bcb77d67bc0fd13f7f-ao-15" height="13.76147" width="77.98165" y="22.41283" x="175.66974" stroke="#2D2D2D" fill="#FFEBA2"/>
  <rect id="7cd63d73277748bcb77d67bc0fd13f7f-ao-16" height="22.93578" width="108.25688" y="78.37613" x="227.96332" stroke="#2D2D2D" fill="#FFEBA2"/>
  <rect id="7cd63d73277748bcb77d67bc0fd13f7f-ao-17" height="21.10092" width="91.74312" y="105.89907" x="230.71561" stroke="#2D2D2D" fill="#FFEBA2"/>
  <rect id="7cd63d73277748bcb77d67bc0fd13f7f-ao-18" height="37.61468" width="63.30275" y="141.67889" x="223.37616" stroke="#2D2D2D" fill="#FFEBA2"/>
  <rect id="7cd63d73277748bcb77d67bc0fd13f7f-ao-19" height="21.10092" width="82.56881" y="183.88072" x="181.17433" stroke="#2D2D2D" fill="#FFEBA2"/>
  <rect id="7cd63d73277748bcb77d67bc0fd13f7f-ao-20" height="19.26606" width="49.54129" y="271.03669" x="206.8624" stroke="#2D2D2D" fill="#FFEBA2"/>
  <rect id="7cd63d73277748bcb77d67bc0fd13f7f-ao-21" height="23.85321" width="97.24771" y="300.39449" x="195.85323" stroke="#2D2D2D" fill="#FFEBA2"/>
  <rect id="7cd63d73277748bcb77d67bc0fd13f7f-ao-22" height="58.7156" width="137.61468" y="326.99999" x="201.35781" stroke="#2D2D2D" fill="#FFEBA2"/>
  <rect id="7cd63d73277748bcb77d67bc0fd13f7f-ao-23" height="24.77064" width="124.77065" y="392.13761" x="192.1835" stroke="#2D2D2D" fill="#FFEBA2"/>
  <rect id="7cd63d73277748bcb77d67bc0fd13f7f-ao-24" height="18.34862" width="151.37615" y="420.57798" x="169.24772" stroke="#2D2D2D" fill="#FFEBA2"/>
  <rect id="7cd63d73277748bcb77d67bc0fd13f7f-ao-25" height="14.6789" width="176.14679" y="446.26605" x="161.90827" stroke="#2D2D2D" fill="#FFEBA2"/>
 </g>
</svg>