<svg xmlns="http://www.w3.org/2000/svg" width="518" height="437">
 <!-- Created with Image Occlusion Enhanced -->
 <g>
  <title>Labels</title>
 </g>
 <g>
  <title>Masks</title>
  <rect id="8115ee85afe742fbb2e016d4494f2016-ao-1" height="11.01695" width="61.01695" y="8.76274" x="87.08475" stroke="#2D2D2D" fill="#FFEBA2"/>
  <rect id="8115ee85afe742fbb2e016d4494f2016-ao-2" height="11.86441" width="90.67797" y="52.83053" x="26.0678" stroke="#2D2D2D" fill="#FFEBA2"/>
  <rect id="8115ee85afe742fbb2e016d4494f2016-ao-3" height="13.55932" width="104.23729" y="70.62715" x="10.81356" stroke="#2D2D2D" fill="#FFEBA2"/>
  <rect id="8115ee85afe742fbb2e016d4494f2016-ao-4" height="23.72881" width="64.40678" y="95.20342" x="8.27119" stroke="#2D2D2D" fill="#FFEBA2"/>
  <rect id="8115ee85afe742fbb2e016d4494f2016-ao-5" height="27.11865" width="55.93221" y="125.71189" x="1.49152" stroke="#2D2D2D" fill="#FFEBA2"/>
  <rect id="8115ee85afe742fbb2e016d4494f2016-ao-6" height="15.25424" width="61.86441" y="49.4407" x="277.76273" stroke="#2D2D2D" fill="#FFEBA2"/>
  <rect id="8115ee85afe742fbb2e016d4494f2016-ao-7" height="28.81356" width="78.81356" y="85.88138" x="237.08476" stroke="#2D2D2D" fill="#FFEBA2"/>
  <rect id="8115ee85afe742fbb2e016d4494f2016-ao-8" height="33.89831" width="39.83051" y="123.16952" x="212.50848" stroke="#2D2D2D" fill="#FFEBA2"/>
  <rect id="8115ee85afe742fbb2e016d4494f2016-ao-9" height="36.44068" width="77.11865" y="163.84749" x="159.96611" stroke="#2D2D2D" fill="#FFEBA2"/>
  <rect id="8115ee85afe742fbb2e016d4494f2016-ao-10" height="26.27119" width="68.64407" y="208.76275" x="130.30509" stroke="#2D2D2D" fill="#FFEBA2"/>
  <rect id="8115ee85afe742fbb2e016d4494f2016-ao-11" height="47.45763" width="68.64407" y="118.08477" x="286.2373" stroke="#2D2D2D" fill="#FF7E7E" class="qshape"/>
  <rect id="8115ee85afe742fbb2e016d4494f2016-ao-12" height="38.98305" width="67.79661" y="206.22037" x="224.37289" stroke="#2D2D2D" fill="#FFEBA2"/>
  <rect id="8115ee85afe742fbb2e016d4494f2016-ao-13" height="12.71187" width="85.59322" y="253.678" x="165.05085" stroke="#2D2D2D" fill="#FFEBA2"/>
  <rect id="8115ee85afe742fbb2e016d4494f2016-ao-14" height="23.72881" width="74.57628" y="273.16953" x="134.54238" stroke="#2D2D2D" fill="#FFEBA2"/>
  <rect id="8115ee85afe742fbb2e016d4494f2016-ao-15" height="27.9661" width="79.66102" y="307.06784" x="105.72882" stroke="#2D2D2D" fill="#FFEBA2"/>
  <rect id="8115ee85afe742fbb2e016d4494f2016-ao-16" height="15.25424" width="85.59322" y="224.86444" x="421.83053" stroke="#2D2D2D" fill="#FFEBA2"/>
  <rect id="8115ee85afe742fbb2e016d4494f2016-ao-17" height="14.40678" width="61.86441" y="246.89834" x="414.20341" stroke="#2D2D2D" fill="#FFEBA2"/>
  <rect id="8115ee85afe742fbb2e016d4494f2016-ao-18" height="12.71187" width="122.88136" y="266.38987" x="393.01697" stroke="#2D2D2D" fill="#FFEBA2"/>
  <rect id="8115ee85afe742fbb2e016d4494f2016-ao-19" height="16.1017" width="129.66102" y="289.27122" x="370.98307" stroke="#2D2D2D" fill="#FFEBA2"/>
  <rect id="8115ee85afe742fbb2e016d4494f2016-ao-20" height="15.25424" width="60.16949" y="309.61021" x="359.96612" stroke="#2D2D2D" fill="#FFEBA2"/>
  <rect id="8115ee85afe742fbb2e016d4494f2016-ao-21" height="10.16949" width="72.0339" y="335.8814" x="356.57629" stroke="#2D2D2D" fill="#FFEBA2"/>
  <rect id="8115ee85afe742fbb2e016d4494f2016-ao-22" height="13.55932" width="58.47458" y="351.98309" x="341.32205" stroke="#2D2D2D" fill="#FFEBA2"/>
  <rect id="8115ee85afe742fbb2e016d4494f2016-ao-23" height="10.16949" width="125.42374" y="376.55936" x="293.86442" stroke="#2D2D2D" fill="#FFEBA2"/>
 </g>
</svg>