<svg xmlns="http://www.w3.org/2000/svg" width="668" height="288">
 <!-- Created with Image Occlusion Enhanced -->
 <g>
  <title>Labels</title>
 </g>
 <g>
  <title>Masks</title>
  <rect id="a3e2ee53279640bf8d9d0827816bb724-ao-1" height="14.72393" width="87.73006" y="15.06748" x="6.84665" stroke="#2D2D2D" fill="#FFEBA2"/>
  <rect id="a3e2ee53279640bf8d9d0827816bb724-ao-2" height="42.94479" width="114.11043" y="41.44785" x="5.00616" stroke="#2D2D2D" fill="#FFEBA2"/>
  <rect id="a3e2ee53279640bf8d9d0827816bb724-ao-3" height="26.99387" width="111.04295" y="88.68711" x="6.23315" stroke="#2D2D2D" fill="#FFEBA2"/>
  <rect id="a3e2ee53279640bf8d9d0827816bb724-ao-4" height="13.49693" width="145.39878" y="121.81595" x="6.23315" stroke="#2D2D2D" fill="#FFEBA2"/>
  <rect id="a3e2ee53279640bf8d9d0827816bb724-ao-5" height="14.11043" width="114.72393" y="140.83435" x="6.23315" stroke="#2D2D2D" fill="#FFEBA2"/>
  <rect id="a3e2ee53279640bf8d9d0827816bb724-ao-6" height="24.53988" width="116.56442" y="161.07975" x="8.07364" stroke="#2D2D2D" fill="#FFEBA2"/>
  <rect id="a3e2ee53279640bf8d9d0827816bb724-ao-7" height="18.40491" width="154.60123" y="195.43558" x="5.00616" stroke="#2D2D2D" fill="#FFEBA2"/>
  <rect id="a3e2ee53279640bf8d9d0827816bb724-ao-8" height="13.49693" width="111.04295" y="220.58896" x="6.23315" stroke="#2D2D2D" fill="#FF7E7E" class="qshape"/>
  <rect id="a3e2ee53279640bf8d9d0827816bb724-ao-9" height="11.65644" width="106.74847" y="7.70551" x="531.38654" stroke="#2D2D2D" fill="#FFEBA2"/>
  <rect id="a3e2ee53279640bf8d9d0827816bb724-ao-10" height="11.04295" width="112.88344" y="24.26993" x="530.15955" stroke="#2D2D2D" fill="#FFEBA2"/>
  <rect id="a3e2ee53279640bf8d9d0827816bb724-ao-11" height="9.81595" width="39.2638" y="40.83435" x="530.77304" stroke="#2D2D2D" fill="#FFEBA2"/>
  <rect id="a3e2ee53279640bf8d9d0827816bb724-ao-12" height="11.65644" width="131.28835" y="56.17177" x="530.77304" stroke="#2D2D2D" fill="#FFEBA2"/>
  <rect id="a3e2ee53279640bf8d9d0827816bb724-ao-13" height="26.38037" width="157.66872" y="77.03067" x="497.03071" stroke="#2D2D2D" fill="#FFEBA2"/>
  <rect id="a3e2ee53279640bf8d9d0827816bb724-ao-14" height="15.33742" width="199.38651" y="108.93251" x="469.42335" stroke="#2D2D2D" fill="#FFEBA2"/>
  <rect id="a3e2ee53279640bf8d9d0827816bb724-ao-15" height="9.81595" width="141.7178" y="131.6319" x="470.03685" stroke="#2D2D2D" fill="#FFEBA2"/>
  <rect id="a3e2ee53279640bf8d9d0827816bb724-ao-16" height="14.72393" width="83.43559" y="149.42331" x="473.71783" stroke="#2D2D2D" fill="#FFEBA2"/>
  <rect id="a3e2ee53279640bf8d9d0827816bb724-ao-17" height="11.04295" width="196.31902" y="172.1227" x="470.65034" stroke="#2D2D2D" fill="#FFEBA2"/>
  <rect id="a3e2ee53279640bf8d9d0827816bb724-ao-18" height="12.26994" width="149.69326" y="191.1411" x="471.87734" stroke="#2D2D2D" fill="#FFEBA2"/>
  <rect id="a3e2ee53279640bf8d9d0827816bb724-ao-19" height="26.38037" width="160.7362" y="215.68098" x="470.03685" stroke="#2D2D2D" fill="#FFEBA2"/>
  <rect id="a3e2ee53279640bf8d9d0827816bb724-ao-20" height="11.65644" width="163.80369" y="248.19632" x="472.49083" stroke="#2D2D2D" fill="#FFEBA2"/>
  <rect id="a3e2ee53279640bf8d9d0827816bb724-ao-21" height="12.26994" width="168.71166" y="267.82822" x="466.35586" stroke="#2D2D2D" fill="#FFEBA2"/>
 </g>
</svg>