<svg xmlns="http://www.w3.org/2000/svg" width="542" height="555">
 <!-- Created with Image Occlusion Enhanced -->
 <g>
  <title>Labels</title>
 </g>
 <g>
  <title>Masks</title>
  <rect id="ad00863d34774e8886d85ea454e9a287-ao-1" height="36.55914" width="50.53763" y="56.82792" x="169.82796" stroke="#2D2D2D" fill="#FF7E7E" class="qshape"/>
  <rect id="ad00863d34774e8886d85ea454e9a287-ao-2" height="19.35484" width="113.9785" y="141.77415" x="125.74194" stroke="#2D2D2D" fill="#FFEBA2"/>
  <rect id="ad00863d34774e8886d85ea454e9a287-ao-3" height="22.58065" width="96.77419" y="452.52684" x="9.61291" stroke="#2D2D2D" fill="#FFEBA2"/>
  <rect id="ad00863d34774e8886d85ea454e9a287-ao-4" height="21.50538" width="94.62366" y="525.64512" x="24.66667" stroke="#2D2D2D" fill="#FFEBA2"/>
  <rect id="ad00863d34774e8886d85ea454e9a287-ao-5" height="21.50538" width="72.04301" y="525.64512" x="139.72043" stroke="#2D2D2D" fill="#FFEBA2"/>
  <rect id="ad00863d34774e8886d85ea454e9a287-ao-6" height="26.88172" width="94.62366" y="426.72039" x="221.44086" stroke="#2D2D2D" fill="#FFEBA2"/>
  <rect id="ad00863d34774e8886d85ea454e9a287-ao-7" height="16.12903" width="93.54839" y="471.88168" x="224.66667" stroke="#2D2D2D" fill="#FFEBA2"/>
  <rect id="ad00863d34774e8886d85ea454e9a287-ao-8" height="16.12903" width="73.11828" y="523.49459" x="232.19355" stroke="#2D2D2D" fill="#FFEBA2"/>
  <rect id="ad00863d34774e8886d85ea454e9a287-ao-9" height="18.27957" width="92.47312" y="534.24727" x="370.90323" stroke="#2D2D2D" fill="#FFEBA2"/>
  <rect id="ad00863d34774e8886d85ea454e9a287-ao-10" height="21.50538" width="82.7957" y="513.81717" x="428.96775" stroke="#2D2D2D" fill="#FFEBA2"/>
  <rect id="ad00863d34774e8886d85ea454e9a287-ao-11" height="23.65591" width="93.54839" y="471.88168" x="435.41936" stroke="#2D2D2D" fill="#FFEBA2"/>
  <rect id="ad00863d34774e8886d85ea454e9a287-ao-12" height="33.33333" width="90.32258" y="382.63437" x="438.64517" stroke="#2D2D2D" fill="#FFEBA2"/>
  <rect id="ad00863d34774e8886d85ea454e9a287-ao-13" height="33.33333" width="47.31183" y="251.45157" x="453.69893" stroke="#2D2D2D" fill="#FFEBA2"/>
  <rect id="ad00863d34774e8886d85ea454e9a287-ao-14" height="27.95699" width="63.44086" y="200.91394" x="279.50538" stroke="#2D2D2D" fill="#FFEBA2"/>
  <rect id="ad00863d34774e8886d85ea454e9a287-ao-15" height="16.12903" width="83.87097" y="178.33329" x="309.61291" stroke="#2D2D2D" fill="#FFEBA2"/>
  <rect id="ad00863d34774e8886d85ea454e9a287-ao-16" height="9.67742" width="64.51613" y="163.27953" x="332.19355" stroke="#2D2D2D" fill="#FFEBA2"/>
  <rect id="ad00863d34774e8886d85ea454e9a287-ao-17" height="17.2043" width="40.86022" y="126.72039" x="361.22581" stroke="#2D2D2D" fill="#FFEBA2"/>
  <rect id="ad00863d34774e8886d85ea454e9a287-ao-18" height="13.97849" width="109.67742" y="108.44082" x="287.03226" stroke="#2D2D2D" fill="#FFEBA2"/>
  <rect id="ad00863d34774e8886d85ea454e9a287-ao-19" height="41.93548" width="50.53763" y="55.75265" x="298.86022" stroke="#2D2D2D" fill="#FFEBA2"/>
  <rect id="ad00863d34774e8886d85ea454e9a287-ao-20" height="18.27957" width="73.11828" y="21.34405" x="339.72043" stroke="#2D2D2D" fill="#FFEBA2"/>
 </g>
</svg>