<svg xmlns="http://www.w3.org/2000/svg" width="561" height="426.00000000000006">
 <!-- Created with Image Occlusion Enhanced -->
 <g>
  <title>Labels</title>
 </g>
 <g>
  <title>Masks</title>
  <rect id="b1f03325d8a24ec1af38a31893bcb47c-ao-1" height="28.09917" width="60.33058" y="59.12394" x="3.46281" stroke="#2D2D2D" fill="#FFEBA2"/>
  <rect id="b1f03325d8a24ec1af38a31893bcb47c-ao-2" height="30.57851" width="52.06612" y="160.77683" x="10.07438" stroke="#2D2D2D" fill="#FFEBA2"/>
  <rect id="b1f03325d8a24ec1af38a31893bcb47c-ao-3" height="22.31405" width="84.29752" y="176.47931" x="100.98347" stroke="#2D2D2D" fill="#FFEBA2"/>
  <rect id="b1f03325d8a24ec1af38a31893bcb47c-ao-4" height="28.92562" width="38.84298" y="142.59501" x="261.31405" stroke="#2D2D2D" fill="#FFEBA2"/>
  <rect id="b1f03325d8a24ec1af38a31893bcb47c-ao-5" height="28.09917" width="50.41322" y="78.95865" x="256.35537" stroke="#2D2D2D" fill="#FFEBA2"/>
  <rect id="b1f03325d8a24ec1af38a31893bcb47c-ao-6" height="23.96694" width="46.28099" y="22.7603" x="254.70248" stroke="#2D2D2D" fill="#FF7E7E" class="qshape"/>
  <rect id="b1f03325d8a24ec1af38a31893bcb47c-ao-7" height="14.04959" width="93.38843" y="181.43799" x="358.00827" stroke="#2D2D2D" fill="#FFEBA2"/>
  <rect id="b1f03325d8a24ec1af38a31893bcb47c-ao-8" height="25.61983" width="42.97521" y="133.5041" x="511.72728" stroke="#2D2D2D" fill="#FFEBA2"/>
  <rect id="b1f03325d8a24ec1af38a31893bcb47c-ao-9" height="26.44628" width="53.71901" y="57.47105" x="499.33058" stroke="#2D2D2D" fill="#FFEBA2"/>
  <rect id="b1f03325d8a24ec1af38a31893bcb47c-ao-10" height="13.22314" width="62.80992" y="215.32229" x="155.52893" stroke="#2D2D2D" fill="#FFEBA2"/>
  <rect id="b1f03325d8a24ec1af38a31893bcb47c-ao-11" height="15.70248" width="52.89256" y="240.11568" x="148.09091" stroke="#2D2D2D" fill="#FFEBA2"/>
  <rect id="b1f03325d8a24ec1af38a31893bcb47c-ao-12" height="12.39669" width="56.19835" y="339.28923" x="148.09091" stroke="#2D2D2D" fill="#FFEBA2"/>
  <rect id="b1f03325d8a24ec1af38a31893bcb47c-ao-13" height="16.52893" width="58.67769" y="373.17353" x="148.09091" stroke="#2D2D2D" fill="#FFEBA2"/>
  <rect id="b1f03325d8a24ec1af38a31893bcb47c-ao-14" height="14.87603" width="59.50413" y="247.55369" x="342.30579" stroke="#2D2D2D" fill="#FFEBA2"/>
  <rect id="b1f03325d8a24ec1af38a31893bcb47c-ao-15" height="18.18182" width="57.02479" y="346.72725" x="354.70248" stroke="#2D2D2D" fill="#FFEBA2"/>
  <rect id="b1f03325d8a24ec1af38a31893bcb47c-ao-16" height="15.70248" width="59.50413" y="344.24791" x="493.54546" stroke="#2D2D2D" fill="#FFEBA2"/>
 </g>
</svg>