<svg xmlns="http://www.w3.org/2000/svg" width="349.00000000000006" height="279">
 <!-- Created with Image Occlusion Enhanced -->
 <g>
  <title>Labels</title>
 </g>
 <g>
  <title>Masks</title>
  <rect id="b38cb46cd1964b3b84ebc1e6cc68c8db-ao-1" height="11.95652" width="96.73913" y="4.15218" x="10.23915" stroke="#2D2D2D" fill="#FFEBA2"/>
  <rect id="b38cb46cd1964b3b84ebc1e6cc68c8db-ao-2" height="36.95652" width="40.21739" y="32.41305" x="10.78262" stroke="#2D2D2D" fill="#FFEBA2"/>
  <rect id="b38cb46cd1964b3b84ebc1e6cc68c8db-ao-3" height="36.95652" width="46.19565" y="83.50001" x="10.23915" stroke="#2D2D2D" fill="#FFEBA2"/>
  <rect id="b38cb46cd1964b3b84ebc1e6cc68c8db-ao-4" height="34.23913" width="48.36957" y="137.30436" x="9.15219" stroke="#2D2D2D" fill="#FFEBA2"/>
  <rect id="b38cb46cd1964b3b84ebc1e6cc68c8db-ao-5" height="20.1087" width="59.78261" y="186.76088" x="10.78262" stroke="#2D2D2D" fill="#FF7E7E" class="qshape"/>
  <rect id="b38cb46cd1964b3b84ebc1e6cc68c8db-ao-6" height="39.67391" width="67.39131" y="225.89132" x="10.23915" stroke="#2D2D2D" fill="#FFEBA2"/>
  <rect id="b38cb46cd1964b3b84ebc1e6cc68c8db-ao-7" height="23.91304" width="44.02174" y="0.89131" x="118.39132" stroke="#2D2D2D" fill="#FFEBA2"/>
  <rect id="b38cb46cd1964b3b84ebc1e6cc68c8db-ao-8" height="10.86957" width="68.47826" y="20.45653" x="223.82611" stroke="#2D2D2D" fill="#FFEBA2"/>
  <rect id="b38cb46cd1964b3b84ebc1e6cc68c8db-ao-9" height="12.5" width="102.7174" y="38.39131" x="241.76089" stroke="#2D2D2D" fill="#FFEBA2"/>
  <rect id="b38cb46cd1964b3b84ebc1e6cc68c8db-ao-10" height="12.5" width="90.76087" y="58.50001" x="246.6522" stroke="#2D2D2D" fill="#FFEBA2"/>
  <rect id="b38cb46cd1964b3b84ebc1e6cc68c8db-ao-11" height="12.5" width="87.5" y="77.52175" x="249.36959" stroke="#2D2D2D" fill="#FFEBA2"/>
  <rect id="b38cb46cd1964b3b84ebc1e6cc68c8db-ao-12" height="20.65217" width="99.45653" y="97.08697" x="245.56524" stroke="#2D2D2D" fill="#FFEBA2"/>
  <rect id="b38cb46cd1964b3b84ebc1e6cc68c8db-ao-13" height="11.95652" width="72.82609" y="130.23914" x="246.6522" stroke="#2D2D2D" fill="#FFEBA2"/>
  <rect id="b38cb46cd1964b3b84ebc1e6cc68c8db-ao-14" height="47.82609" width="50.54348" y="151.97827" x="151.00002" stroke="#2D2D2D" fill="#FFEBA2"/>
  <rect id="b38cb46cd1964b3b84ebc1e6cc68c8db-ao-15" height="24.45652" width="51.08696" y="204.69567" x="136.32611" stroke="#2D2D2D" fill="#FFEBA2"/>
  <rect id="b38cb46cd1964b3b84ebc1e6cc68c8db-ao-16" height="23.91304" width="51.63044" y="231.86958" x="112.41306" stroke="#2D2D2D" fill="#FFEBA2"/>
 </g>
</svg>