<svg xmlns="http://www.w3.org/2000/svg" width="393" height="222">
 <!-- Created with Image Occlusion Enhanced -->
 <g>
  <title>Labels</title>
 </g>
 <g>
  <title>Masks</title>
  <rect id="c3cec066d9304e5ca1cfda40506cbe5b-ao-1" height="12.06897" width="81.46552" y="24.98277" x="52.68964" stroke="#2D2D2D" fill="#FFEBA2"/>
  <rect id="c3cec066d9304e5ca1cfda40506cbe5b-ao-2" height="12.06897" width="46.98276" y="37.05174" x="66.05171" stroke="#2D2D2D" fill="#FFEBA2"/>
  <rect id="c3cec066d9304e5ca1cfda40506cbe5b-ao-3" height="9.05172" width="27.58621" y="61.18967" x="89.75861" stroke="#2D2D2D" fill="#FFEBA2"/>
  <rect id="c3cec066d9304e5ca1cfda40506cbe5b-ao-4" height="11.2069" width="48.27586" y="73.25863" x="94.49999" stroke="#2D2D2D" fill="#FFEBA2"/>
  <rect id="c3cec066d9304e5ca1cfda40506cbe5b-ao-5" height="24.13793" width="64.65518" y="137.05174" x="70.79309" stroke="#2D2D2D" fill="#FFEBA2"/>
  <rect id="c3cec066d9304e5ca1cfda40506cbe5b-ao-6" height="12.93104" width="77.58621" y="164.20691" x="56.99999" stroke="#2D2D2D" fill="#FFEBA2"/>
  <rect id="c3cec066d9304e5ca1cfda40506cbe5b-ao-7" height="10.77586" width="67.67242" y="176.70691" x="33.29309" stroke="#2D2D2D" fill="#FFEBA2"/>
  <rect id="c3cec066d9304e5ca1cfda40506cbe5b-ao-8" height="10.77586" width="46.55173" y="188.77588" x="19.49999" stroke="#2D2D2D" fill="#FFEBA2"/>
  <rect id="c3cec066d9304e5ca1cfda40506cbe5b-ao-9" height="11.63793" width="67.67242" y="148.68967" x="160.8793" stroke="#2D2D2D" fill="#FFEBA2"/>
  <rect id="c3cec066d9304e5ca1cfda40506cbe5b-ao-10" height="12.93104" width="82.32759" y="15.93104" x="271.22413" stroke="#2D2D2D" fill="#FFEBA2"/>
  <rect id="c3cec066d9304e5ca1cfda40506cbe5b-ao-11" height="10.34483" width="51.29311" y="30.15518" x="295.36207" stroke="#2D2D2D" fill="#FFEBA2"/>
  <rect id="c3cec066d9304e5ca1cfda40506cbe5b-ao-12" height="10.34483" width="40.94828" y="41.79311" x="291.05172" stroke="#2D2D2D" fill="#FF7E7E" class="qshape"/>
  <rect id="c3cec066d9304e5ca1cfda40506cbe5b-ao-13" height="8.62069" width="25.43104" y="65.50001" x="266.05172" stroke="#2D2D2D" fill="#FFEBA2"/>
  <rect id="c3cec066d9304e5ca1cfda40506cbe5b-ao-14" height="12.5" width="45.68966" y="74.98277" x="236.74137" stroke="#2D2D2D" fill="#FFEBA2"/>
  <rect id="c3cec066d9304e5ca1cfda40506cbe5b-ao-15" height="12.5" width="45.68966" y="140.93105" x="266.05172" stroke="#2D2D2D" fill="#FFEBA2"/>
  <rect id="c3cec066d9304e5ca1cfda40506cbe5b-ao-16" height="12.5" width="75.86207" y="156.44829" x="261.31034" stroke="#2D2D2D" fill="#FFEBA2"/>
  <rect id="c3cec066d9304e5ca1cfda40506cbe5b-ao-17" height="13.36207" width="140.08621" y="171.96553" x="218.63793" stroke="#2D2D2D" fill="#FFEBA2"/>
  <rect id="c3cec066d9304e5ca1cfda40506cbe5b-ao-18" height="9.91379" width="49.56897" y="189.63795" x="331.56896" stroke="#2D2D2D" fill="#FFEBA2"/>
 </g>
</svg>