<svg xmlns="http://www.w3.org/2000/svg" width="269" height="468">
 <!-- Created with Image Occlusion Enhanced -->
 <g>
  <title>Labels</title>
 </g>
 <g>
  <title>Masks</title>
  <rect id="c71abf79271e4ea4bf2b7b2c64cc9c64-ao-1" height="10.90909" width="70.90909" y="2.00001" x="46.31819" stroke="#2D2D2D" fill="#FFEBA2"/>
  <rect id="c71abf79271e4ea4bf2b7b2c64cc9c64-ao-2" height="21.81818" width="65.45455" y="22.00001" x="36.31819" stroke="#2D2D2D" fill="#FFEBA2"/>
  <rect id="c71abf79271e4ea4bf2b7b2c64cc9c64-ao-3" height="24.54546" width="66.36364" y="136.54547" x="8.13637" stroke="#2D2D2D" fill="#FFEBA2"/>
  <rect id="c71abf79271e4ea4bf2b7b2c64cc9c64-ao-4" height="26.36364" width="70" y="167.45456" x="9.04547" stroke="#2D2D2D" fill="#FFEBA2"/>
  <rect id="c71abf79271e4ea4bf2b7b2c64cc9c64-ao-5" height="25.45455" width="70.90909" y="202.90911" x="8.13637" stroke="#2D2D2D" fill="#FFEBA2"/>
  <rect id="c71abf79271e4ea4bf2b7b2c64cc9c64-ao-6" height="13.63636" width="83.63637" y="236.54547" x="7.22728" stroke="#2D2D2D" fill="#FFEBA2"/>
  <rect id="c71abf79271e4ea4bf2b7b2c64cc9c64-ao-7" height="25.45455" width="91.81818" y="255.63638" x="9.04547" stroke="#2D2D2D" fill="#FFEBA2"/>
  <rect id="c71abf79271e4ea4bf2b7b2c64cc9c64-ao-8" height="11.81818" width="33.63636" y="322.90911" x="50.86365" stroke="#2D2D2D" fill="#FFEBA2"/>
  
  <rect id="c71abf79271e4ea4bf2b7b2c64cc9c64-ao-10" height="26.36364" width="92.72727" y="293.8182" x="14.50001" stroke="#2D2D2D" fill="#FFEBA2"/>
  <rect id="c71abf79271e4ea4bf2b7b2c64cc9c64-ao-11" height="24.54546" width="33.63636" y="361.09093" x="9.04547" stroke="#2D2D2D" fill="#FFEBA2"/>
  <rect id="c71abf79271e4ea4bf2b7b2c64cc9c64-ao-12" height="27.27273" width="51.81818" y="393.8182" x="19.04547" stroke="#2D2D2D" fill="#FFEBA2"/>
  <rect id="c71abf79271e4ea4bf2b7b2c64cc9c64-ao-13" height="11.81818" width="55.45455" y="430.18184" x="22.68183" stroke="#2D2D2D" fill="#FFEBA2"/>
  <rect id="c71abf79271e4ea4bf2b7b2c64cc9c64-ao-14" height="39.09091" width="41.81818" y="132.90911" x="194.50002" stroke="#2D2D2D" fill="#FFEBA2"/>
  <rect id="c71abf79271e4ea4bf2b7b2c64cc9c64-ao-15" height="17.27273" width="76.36364" y="346.54547" x="168.13638" stroke="#2D2D2D" fill="#FFEBA2"/>
  <rect id="c71abf79271e4ea4bf2b7b2c64cc9c64-ao-16" height="14.54545" width="82.72727" y="373.8182" x="185.40911" stroke="#2D2D2D" fill="#FFEBA2"/>
  <rect id="c71abf79271e4ea4bf2b7b2c64cc9c64-ao-17" height="14.54545" width="42.72727" y="387.45457" x="167.22729" stroke="#2D2D2D" fill="#FFEBA2"/>
 </g>
</svg>