<svg xmlns="http://www.w3.org/2000/svg" width="518" height="330.00000000000006">
 <!-- Created with Image Occlusion Enhanced -->
 <g>
  <title>Labels</title>
 </g>
 <g>
  <title>Masks</title>
  <rect id="d0210cf0653f44e492c4da45d854418c-ao-1" height="11.53846" width="78.84616" y="70.00001" x="46.74357" stroke="#2D2D2D" fill="#FFEBA2"/>
  <rect id="d0210cf0653f44e492c4da45d854418c-ao-2" height="21.15385" width="34.61539" y="107.82052" x="21.74357" stroke="#2D2D2D" fill="#FFEBA2"/>
  <rect id="d0210cf0653f44e492c4da45d854418c-ao-3" height="21.15385" width="58.33333" y="155.89745" x="11.48716" stroke="#2D2D2D" fill="#FFEBA2"/>
  <rect id="d0210cf0653f44e492c4da45d854418c-ao-4" height="11.53846" width="103.84616" y="316.15386" x="12.76921" stroke="#2D2D2D" fill="#FFEBA2"/>
  <rect id="d0210cf0653f44e492c4da45d854418c-ao-5" height="13.46154" width="119.23077" y="14.8718" x="312.12819" stroke="#2D2D2D" fill="#FFEBA2"/>
  <rect id="d0210cf0653f44e492c4da45d854418c-ao-6" height="9.61538" width="98.71795" y="32.1795" x="314.05127" stroke="#2D2D2D" fill="#FFEBA2"/>
  <rect id="d0210cf0653f44e492c4da45d854418c-ao-7" height="11.53846" width="133.97436" y="46.28206" x="312.76922" stroke="#2D2D2D" fill="#FFEBA2"/>
  <rect id="d0210cf0653f44e492c4da45d854418c-ao-8" height="9.61538" width="106.41026" y="63.58975" x="314.05127" stroke="#2D2D2D" fill="#FFEBA2"/>
  <rect id="d0210cf0653f44e492c4da45d854418c-ao-9" height="10.89744" width="110.89744" y="77.69232" x="327.51281" stroke="#2D2D2D" fill="#FFEBA2"/>
  <rect id="d0210cf0653f44e492c4da45d854418c-ao-10" height="10.89744" width="112.17949" y="95.64104" x="355.71793" stroke="#2D2D2D" fill="#FFEBA2"/>
  <rect id="d0210cf0653f44e492c4da45d854418c-ao-11" height="8.97436" width="48.07692" y="111.02565" x="393.53845" stroke="#2D2D2D" fill="#FFEBA2"/>
  <rect id="d0210cf0653f44e492c4da45d854418c-ao-12" height="10.89744" width="92.94872" y="130.89745" x="402.51281" stroke="#2D2D2D" fill="#FFEBA2"/>
  <rect id="d0210cf0653f44e492c4da45d854418c-ao-13" height="8.97436" width="72.4359" y="148.20514" x="403.15383" stroke="#2D2D2D" fill="#FFEBA2"/>
  <rect id="d0210cf0653f44e492c4da45d854418c-ao-14" height="12.82051" width="88.46154" y="162.94873" x="401.87178" stroke="#2D2D2D" fill="#FFEBA2"/>
  <rect id="d0210cf0653f44e492c4da45d854418c-ao-15" height="10.25641" width="87.17949" y="182.1795" x="403.15383" stroke="#2D2D2D" fill="#FFEBA2"/>
  <rect id="d0210cf0653f44e492c4da45d854418c-ao-16" height="11.53846" width="89.74359" y="196.92309" x="402.51281" stroke="#2D2D2D" fill="#FFEBA2"/>
  <rect id="d0210cf0653f44e492c4da45d854418c-ao-17" height="11.53846" width="105.12821" y="214.23078" x="407.64101" stroke="#2D2D2D" fill="#FFEBA2"/>
  <rect id="d0210cf0653f44e492c4da45d854418c-ao-18" height="12.17949" width="57.05128" y="231.53847" x="409.56409" stroke="#2D2D2D" fill="#FFEBA2"/>
  
 </g>
</svg>