<svg xmlns="http://www.w3.org/2000/svg" width="392" height="262">
 <!-- Created with Image Occlusion Enhanced -->
 <g>
  <title>Labels</title>
 </g>
 <g>
  <title>Masks</title>
  <rect id="e21cf46d550049fb92e6d3c42e5a8c28-ao-1" height="13.26531" width="137.7551" y="9.93876" x="191.67346" stroke="#2D2D2D" fill="#FFEBA2"/>
  <rect id="e21cf46d550049fb92e6d3c42e5a8c28-ao-2" height="10.20408" width="46.93878" y="27.7959" x="215.14285" stroke="#2D2D2D" fill="#FFEBA2"/>
  <rect id="e21cf46d550049fb92e6d3c42e5a8c28-ao-3" height="21.93878" width="142.85714" y="41.06121" x="243.20408" stroke="#2D2D2D" fill="#FFEBA2"/>
  <rect id="e21cf46d550049fb92e6d3c42e5a8c28-ao-4" height="12.7551" width="132.14286" y="70.65305" x="259.0204" stroke="#2D2D2D" fill="#FFEBA2"/>
  <rect id="e21cf46d550049fb92e6d3c42e5a8c28-ao-5" height="35.20408" width="89.28571" y="222.69386" x="79.93877" stroke="#2D2D2D" fill="#FFEBA2"/>
  <rect id="e21cf46d550049fb92e6d3c42e5a8c28-ao-6" height="13.77551" width="47.44898" y="206.36733" x="120.24489" stroke="#2D2D2D" fill="#FFEBA2"/>
  <rect id="e21cf46d550049fb92e6d3c42e5a8c28-ao-7" height="10.71429" width="34.69388" y="192.08162" x="132.48979" stroke="#2D2D2D" fill="#FFEBA2"/>
  <rect id="e21cf46d550049fb92e6d3c42e5a8c28-ao-8" height="23.46939" width="40.30612" y="163.51019" x="126.87755" stroke="#2D2D2D" fill="#FFEBA2"/>
  <rect id="e21cf46d550049fb92e6d3c42e5a8c28-ao-9" height="35.71429" width="83.67347" y="173.71427" x="40.65306" stroke="#2D2D2D" fill="#FFEBA2"/>
  <rect id="e21cf46d550049fb92e6d3c42e5a8c28-ao-10" height="10.71429" width="43.36735" y="157.38774" x="39.12244" stroke="#2D2D2D" fill="#FFEBA2"/>
  <rect id="e21cf46d550049fb92e6d3c42e5a8c28-ao-11" height="34.18367" width="47.44898" y="121.16325" x="39.12244" stroke="#2D2D2D" fill="#FFEBA2"/>
  <rect id="e21cf46d550049fb92e6d3c42e5a8c28-ao-12" height="13.77551" width="26.02041" y="102.7959" x="39.63265" stroke="#2D2D2D" fill="#FFEBA2"/>
  <rect id="e21cf46d550049fb92e6d3c42e5a8c28-ao-13" height="14.28571" width="56.12245" y="91.06121" x="58.5102" stroke="#2D2D2D" fill="#FF7E7E" class="qshape"/>
  <rect id="e21cf46d550049fb92e6d3c42e5a8c28-ao-14" height="12.2449" width="77.55102" y="78.81631" x="64.12244" stroke="#2D2D2D" fill="#FFEBA2"/>
  <rect id="e21cf46d550049fb92e6d3c42e5a8c28-ao-15" height="10.71429" width="64.28571" y="65.0408" x="80.44898" stroke="#2D2D2D" fill="#FFEBA2"/>
  <rect id="e21cf46d550049fb92e6d3c42e5a8c28-ao-16" height="10.20408" width="40.30612" y="46.16325" x="111.57142" stroke="#2D2D2D" fill="#FFEBA2"/>
  <rect id="e21cf46d550049fb92e6d3c42e5a8c28-ao-17" height="10.20408" width="27.04082" y="31.36733" x="135.55102" stroke="#2D2D2D" fill="#FFEBA2"/>
  <rect id="e21cf46d550049fb92e6d3c42e5a8c28-ao-18" height="10.20408" width="30.61224" y="17.59182" x="158.5102" stroke="#2D2D2D" fill="#FFEBA2"/>
 </g>
</svg>